<svg width="45" height="45" viewBox="0 0 45 45" fill="none" xmlns="http://www.w3.org/2000/svg">
<path d="M34.8563 11.0438C32.55 9.97505 30.0938 9.18755 27.5063 8.73755C27.1875 9.30005 26.8125 10.0688 26.5688 10.6875C23.8313 10.275 21.1125 10.275 18.4313 10.6875C18.1688 10.0688 17.7938 9.30005 17.475 8.73755C14.8875 9.18755 12.4313 9.97505 10.125 11.0438C5.47504 18.0563 4.21879 24.9001 4.83754 31.6314C7.93129 33.9376 10.9125 35.3251 13.8563 36.2439C14.5875 35.2501 15.225 34.1814 15.7875 33.0751C14.7188 32.6814 13.7063 32.1751 12.75 31.5939C13.0125 31.4064 13.2563 31.2001 13.5 31.0126C19.3688 33.7501 25.725 33.7501 31.5188 31.0126C31.7625 31.2189 32.0063 31.4064 32.2688 31.5939C31.3125 32.1751 30.2813 32.6626 29.2313 33.0751C29.7938 34.1814 30.4313 35.2501 31.1625 36.2439C34.1063 35.3251 37.1063 33.9376 40.1813 31.6314C40.9125 23.8126 38.925 17.0438 34.8938 11.0438H34.8563ZM16.575 27.5064C14.8125 27.5064 13.3688 25.8751 13.3688 23.8689C13.3688 21.8626 14.775 20.2314 16.575 20.2314C18.375 20.2314 19.8 21.8626 19.7813 23.8689C19.7813 25.8564 18.375 27.5064 16.575 27.5064ZM28.4063 27.5064C26.6438 27.5064 25.2 25.8751 25.2 23.8689C25.2 21.8626 26.6063 20.2314 28.4063 20.2314C30.2063 20.2314 31.6313 21.8626 31.6125 23.8689C31.6125 25.8564 30.2063 27.5064 28.4063 27.5064Z" fill="#004C8E"/>
</svg>
